<mxfile host="Electron" agent="Mozilla/5.0 (Windows NT 10.0; Win64; x64) AppleWebKit/537.36 (KHTML, like Gecko) draw.io/26.0.9 Chrome/128.0.6613.186 Electron/32.2.5 Safari/537.36" version="26.0.9">
  <diagram name="PÃ¡gina-1" id="1QB3ZOOMAZCcU8J9XIPx">
    <mxGraphModel dx="794" dy="511" grid="1" gridSize="10" guides="1" tooltips="1" connect="1" arrows="1" fold="1" page="1" pageScale="1" pageWidth="827" pageHeight="1169" math="0" shadow="0">
      <root>
        <mxCell id="0" />
        <mxCell id="1" parent="0" />
        <mxCell id="-R4ss9E-UghBabYP_VlL-2" value="&lt;font style=&quot;font-size: 22px;&quot;&gt;DIAGRAMA CASOS DE USO GESTIONAPPLICATE&lt;/font&gt;&lt;div style=&quot;font-size: 22px;&quot;&gt;&lt;br style=&quot;&quot;&gt;&lt;/div&gt;" style="text;html=1;align=center;verticalAlign=top;whiteSpace=wrap;rounded=0;fontSize=16;" parent="1" vertex="1">
          <mxGeometry x="130" y="50" width="580" height="30" as="geometry" />
        </mxCell>
        <mxCell id="-R4ss9E-UghBabYP_VlL-4" value="CONSULTAR TODOS LOS ALUMNOS" style="ellipse;whiteSpace=wrap;html=1;" parent="1" vertex="1">
          <mxGeometry x="394" y="150" width="112" height="65" as="geometry" />
        </mxCell>
        <mxCell id="-R4ss9E-UghBabYP_VlL-6" value="CONSULTAR TODOS LOS CURSOS" style="ellipse;whiteSpace=wrap;html=1;" parent="1" vertex="1">
          <mxGeometry x="394" y="220" width="112" height="65" as="geometry" />
        </mxCell>
        <mxCell id="-R4ss9E-UghBabYP_VlL-7" value="CONSULTAR ALUMNOS POR DNI" style="ellipse;whiteSpace=wrap;html=1;" parent="1" vertex="1">
          <mxGeometry x="389" y="297.5" width="112" height="65" as="geometry" />
        </mxCell>
        <mxCell id="-R4ss9E-UghBabYP_VlL-8" value="CONSULTAR ALUMNOS POR CURSO" style="ellipse;whiteSpace=wrap;html=1;" parent="1" vertex="1">
          <mxGeometry x="394" y="392.5" width="112" height="65" as="geometry" />
        </mxCell>
        <mxCell id="-R4ss9E-UghBabYP_VlL-9" value="CONSULTAR CURSOS POR LOCALIZACION" style="ellipse;whiteSpace=wrap;html=1;" parent="1" vertex="1">
          <mxGeometry x="394" y="560" width="122" height="65" as="geometry" />
        </mxCell>
        <mxCell id="-R4ss9E-UghBabYP_VlL-37" style="edgeStyle=orthogonalEdgeStyle;rounded=0;orthogonalLoop=1;jettySize=auto;html=1;" parent="1" edge="1">
          <mxGeometry relative="1" as="geometry">
            <mxPoint x="394" y="259.5" as="targetPoint" />
            <mxPoint x="228" y="259.5" as="sourcePoint" />
          </mxGeometry>
        </mxCell>
        <mxCell id="-R4ss9E-UghBabYP_VlL-38" style="edgeStyle=orthogonalEdgeStyle;rounded=0;orthogonalLoop=1;jettySize=auto;html=1;entryX=0;entryY=0.5;entryDx=0;entryDy=0;" parent="1" source="-R4ss9E-UghBabYP_VlL-42" target="-R4ss9E-UghBabYP_VlL-7" edge="1">
          <mxGeometry relative="1" as="geometry">
            <mxPoint x="270" y="329.5" as="sourcePoint" />
            <mxPoint x="386" y="329.5" as="targetPoint" />
          </mxGeometry>
        </mxCell>
        <mxCell id="-R4ss9E-UghBabYP_VlL-40" style="edgeStyle=orthogonalEdgeStyle;rounded=0;orthogonalLoop=1;jettySize=auto;html=1;" parent="1" edge="1">
          <mxGeometry relative="1" as="geometry">
            <mxPoint x="396" y="422" as="targetPoint" />
            <mxPoint x="230" y="422" as="sourcePoint" />
          </mxGeometry>
        </mxCell>
        <mxCell id="-R4ss9E-UghBabYP_VlL-42" value="" style="shape=umlActor;verticalLabelPosition=bottom;verticalAlign=top;html=1;outlineConnect=0;" parent="1" vertex="1">
          <mxGeometry x="210" y="300" width="30" height="60" as="geometry" />
        </mxCell>
        <mxCell id="KeUNX5xZIv87XdbmKmjB-1" value="" style="endArrow=classic;html=1;rounded=0;exitX=0.5;exitY=0;exitDx=0;exitDy=0;exitPerimeter=0;entryX=0;entryY=0.5;entryDx=0;entryDy=0;" parent="1" source="-R4ss9E-UghBabYP_VlL-42" target="-R4ss9E-UghBabYP_VlL-4" edge="1">
          <mxGeometry width="50" height="50" relative="1" as="geometry">
            <mxPoint x="210" y="230" as="sourcePoint" />
            <mxPoint x="226" y="180" as="targetPoint" />
            <Array as="points">
              <mxPoint x="225" y="183" />
            </Array>
          </mxGeometry>
        </mxCell>
        <mxCell id="KeUNX5xZIv87XdbmKmjB-3" value="" style="endArrow=classic;html=1;rounded=0;entryX=0;entryY=0.5;entryDx=0;entryDy=0;exitX=0.567;exitY=1.25;exitDx=0;exitDy=0;exitPerimeter=0;" parent="1" source="n4LpkMvgn9FUCIymc3Jk-1" target="-R4ss9E-UghBabYP_VlL-9" edge="1">
          <mxGeometry width="50" height="50" relative="1" as="geometry">
            <mxPoint x="230" y="480" as="sourcePoint" />
            <mxPoint x="561" y="470" as="targetPoint" />
            <Array as="points">
              <mxPoint x="231" y="593" />
            </Array>
          </mxGeometry>
        </mxCell>
        <mxCell id="n4LpkMvgn9FUCIymc3Jk-1" value="USUARIOS" style="text;html=1;align=center;verticalAlign=middle;whiteSpace=wrap;rounded=0;" parent="1" vertex="1">
          <mxGeometry x="187.5" y="362.5" width="75" height="30" as="geometry" />
        </mxCell>
        <mxCell id="VKRCqXJI67xcHW4EMx4J-1" value="CONSULTAR CURSOS POR ALUMNO" style="ellipse;whiteSpace=wrap;html=1;" vertex="1" parent="1">
          <mxGeometry x="394" y="480" width="112" height="65" as="geometry" />
        </mxCell>
        <mxCell id="VKRCqXJI67xcHW4EMx4J-2" style="edgeStyle=orthogonalEdgeStyle;rounded=0;orthogonalLoop=1;jettySize=auto;html=1;" edge="1" parent="1">
          <mxGeometry relative="1" as="geometry">
            <mxPoint x="396" y="509.5" as="targetPoint" />
            <mxPoint x="230" y="509.5" as="sourcePoint" />
          </mxGeometry>
        </mxCell>
      </root>
    </mxGraphModel>
  </diagram>
</mxfile>
